<?xml version="1.0" encoding="utf-8"?>
<!-- Generator: Adobe Illustrator 27.9.0, SVG Export Plug-In . SVG Version: 6.00 Build 0)  -->
<svg version="1.1" id="Layer_1" xmlns="http://www.w3.org/2000/svg" xmlns:xlink="http://www.w3.org/1999/xlink" x="0px" y="0px"
	 viewBox="0 0 1079.99 1080" style="enable-background:new 0 0 1079.99 1080;" xml:space="preserve">
<style type="text/css">
	.st0{fill:url(#SVGID_1_);}
	.st1{fill:#FFFFFF;}
</style>
<g>
	<linearGradient id="SVGID_1_" gradientUnits="userSpaceOnUse" x1="129.4606" y1="922.2307" x2="958.044" y2="150.7729">
		<stop  offset="0" style="stop-color:#FF544F"/>
		<stop  offset="0.5532" style="stop-color:#FF923F"/>
		<stop  offset="1" style="stop-color:#FFBF33"/>
	</linearGradient>
	<path class="st0" d="M872.55,1080H207.44C92.87,1080-0.01,987.12-0.01,872.55V207.45C-0.01,92.88,92.87,0,207.44,0h665.11
		c114.57,0,207.45,92.88,207.45,207.45v665.11C1079.99,987.12,987.12,1080,872.55,1080z"/>
	<path class="st1" d="M554.67,965.75c-43.54,4.9-77.59-8.99-101.33-26.93c-23.73-17.96-35.6-43.06-35.6-75.31
		c0-16.43,2.42-32.26,7.3-47.47l63.12-240.61c-37.74,39.57-82.47,59.34-134.19,59.34c-27.39,0-52.49-6.53-75.31-19.63
		c-22.82-13.08-40.78-32.55-53.86-58.42c-13.09-25.86-19.63-56.74-19.63-92.66c0-29.81,3.65-58.42,10.95-85.81
		c12.78-50.51,32.71-92.96,59.79-127.35c27.07-34.38,58.42-59.94,94.03-76.68c35.6-16.73,72.57-25.1,110.91-25.1
		c35.9,0,66.18,5.18,90.83,15.52c24.65,10.36,46.7,26.17,66.18,47.47l45.98-37.93c12.48-10.29,28.15-15.93,44.33-15.93h95.48
		c10.17,0,17.52,9.74,14.72,19.52L662.38,792.31c-4.88,17.64-7.3,29.81-7.3,36.51c0,7.9,1.97,13.38,5.93,16.43
		c3.95,3.04,10.5,4.56,19.63,4.56c3.95,0,8.32-0.27,13.11-0.8c7.8-0.87,15.51-2.36,23.13-4.27l32.62-8.02
		c7.08-1.74,12.72,5.95,8.94,12.18C758.44,848.9,676.85,952.01,554.67,965.75z"/>
</g>
</svg>
